{"title":"JUST TEENS PORN-BOY FCUK BLONDE-SILVERDUST{HKRG}","uid":6237167,"size":695557474,"categoryP":"porn","categoryS":"movie_clips","magnet":"?xt=urn:btih:323de002c3eaf99fab5f1293e49275137d585c4f&amp;dn=JUST+TEENS+PORN-BOY+FCUK+BLONDE-SILVERDUST%7BHKRG%7D&amp;tr=udp%3A%2F%2Ftracker.openbittorrent.com%3A80&amp;tr=udp%3A%2F%2Fopen.demonii.com%3A1337&amp;tr=udp%3A%2F%2Ftracker.coppersurfer.tk%3A6969&amp;tr=udp%3A%2F%2Fexodus.desync.com%3A6969","seeders":0,"leechers":1,"uploader":"dodgerblue","files":6,"time":1299921520,"description":"JUST TEENS PORN-BOY FCUK BLONDE-SILVERDUST{HKRG} &lt;a href=&quot;\nhttp://img3.immage.de/120302image50257343.jpg&quot; rel=&quot;nofollow&quot; target=&quot;_NEW&quot;&gt;\nhttp://img3.immage.de/120302image50257343.jpg&lt;/a&gt; &lt;a href=&quot;\nhttp://img2.immage.de/120380bimage50259796.jpg&quot; rel=&quot;nofollow&quot; target=&quot;_NEW&quot;&gt;\nhttp://img2.immage.de/120380bimage50259796.jpg&lt;/a&gt;\n[img]http://img3.immage.de/120302image50257343.jpg[/img]\n\n[img]http://img2.immage.de/120380bimage50259796.jpg[/img]\n\n\n &lt;a href=&quot;\nhttp://www.leetleech.org/images/70164352431103585394.jpg&quot; rel=&quot;nofollow&quot; target=&quot;_NEW&quot;&gt;\nhttp://www.leetleech.org/images/70164352431103585394.jpg&lt;/a&gt;\n    &lt;a href=&quot;\thttp://www.leetleech.org/images/92421151284823364271.png&quot; rel=&quot;nofollow&quot; target=&quot;_NEW&quot;&gt;\thttp://www.leetleech.org/images/92421151284823364271.png&lt;/a&gt;\n    &lt;a href=&quot;\thttp://www.leetleech.org/images/40422585559010343883.png&quot; rel=&quot;nofollow&quot; target=&quot;_NEW&quot;&gt;\thttp://www.leetleech.org/images/40422585559010343883.png&lt;/a&gt;\n    &lt;a href=&quot;\thttp://www.leetleech.org/images/47227864482570885961.png&quot; rel=&quot;nofollow&quot; target=&quot;_NEW&quot;&gt;\thttp://www.leetleech.org/images/47227864482570885961.png&lt;/a&gt;\nFormat                           : Windows Media\nFile size                        : 661 MiB\nDuration                         : 29mn 26s\nOverall bit rate mode            : Variable\nOverall bit rate                 : 3 138 Kbps\nMaximum Overall bit rate         : 6 154 Kbps\nEncoded date                     : UTC 2008-05-25 08:02:19.567\n\nVideo\nID                               : 2\nFormat                           : VC-1\nFormat profile                   : MP@ML\nCodec ID                         : WMV3\nCodec ID/Info                    : Windows Media Video 9\nCodec ID/Hint                    : WMV3\nDescription of the codec         : Windows Media Video 9 - Professional\nDuration                         : 29mn 26s\nBit rate mode                    : Variable\nBit rate                         : 3 000 Kbps\nWidth                            : 640 pixels\nHeight                           : 480 pixels\nDisplay aspect ratio             : 4:3\nFrame rate                       : 25.000 fps\nBit depth                        : 8 bits\nScan type                        : Progressive\nCompression mode                 : Lossy\nBits/(Pixel*Frame)               : 0.391\nStream size                      : 632 MiB (96%)\n\nAudio\nID                               : 1\nFormat                           : WMA\nFormat version                   : Version 2\nCodec ID                         : 161\nCodec ID/Info                    : Windows Media Audio\nDescription of the codec         : Windows Media Audio 9.2 - 127 kbps, 48 kHz, stereo Low Delay 2-pass CBR\nDuration                         : 29mn 26s\nBit rate mode                    : Constant\nBit rate                         : 127 Kbps\nChannel(s)                       : 2 channels\nSampling rate                    : 48.0 KHz\nBit depth                        : 16 bits\nStream size                      : 26.7 MiB (4%)\n\nNJOI","torrent":{"xt":"urn:btih:323de002c3eaf99fab5f1293e49275137d585c4f","amp;dn":"JUST+TEENS+PORN-BOY+FCUK+BLONDE-SILVERDUST%7BHKRG%7D","amp;tr":["udp%3A%2F%2Ftracker.openbittorrent.com%3A80","udp%3A%2F%2Fopen.demonii.com%3A1337","udp%3A%2F%2Ftracker.coppersurfer.tk%3A6969","udp%3A%2F%2Fexodus.desync.com%3A6969"],"infoHash":"323de002c3eaf99fab5f1293e49275137d585c4f","infoHashBuffer":{"type":"Buffer","data":[50,61,224,2,195,234,249,159,171,95,18,147,228,146,117,19,125,88,92,79]},"announce":[],"urlList":[]}}